<svg xmlns="http://www.w3.org/2000/svg" x="0px" y="0px" width="100" height="100" viewBox="0 0 50 50">
<path d="M50,24.939C50,28.564,47.573,31,43.961,31c-1.332,0-2.499-0.333-3.441-0.934c-0.151,0.843-0.414,1.576-0.867,2.258 C38.847,33.545,37.197,35,33.909,35c-1.244,0-2.332-0.192-3.423-0.605l-1.292-0.489V31c0,0-10.791,0-11.29,0 c-0.966,0-1.734-0.148-2.36-0.384c-0.099,0.29-0.208,0.573-0.352,0.846c-0.618,1.2-1.471,1.988-2.945,2.721l-0.867,0.431 l-0.876-0.413L8.169,33.1l-5.267-2.924l0.011-0.001C1.047,29.198,0,27.392,0,24.944c0-3.413,2.25-5.869,5.561-6.197V17v-2h10.456v2 v2.397C16.874,19.14,17.747,19,18.662,19c1.366,0,2.313,0.329,2.983,0.772l0.528-0.144C23.764,19.194,25.077,19,26.431,19 c1.788,0,3.16,0.497,4.081,1.479c0.132,0.141,0.247,0.284,0.353,0.43C32.094,19.77,33.992,19,36.758,19 c1.188,0,2.322,0.119,3.677,0.387l0.877,0.173C42.116,19.2,43.038,19,44.059,19C47.612,19,50,21.387,50,24.939z M7.561,17v3.839 c-0.376-0.097-0.825-0.13-1.233-0.13C3.697,20.709,2,22.376,2,24.944C2,27.609,3.6,28.997,6.675,29 c1.027,0,2.036-0.097,3.325-0.343V17H7.561L7.561,17z M7.561,22.865v4.044c-0.36,0.049-0.724,0.065-1.003,0.065 c-1.289,0-1.992-0.739-1.992-2.078c0-1.375,0.735-2.16,2.008-2.16C6.885,22.736,7.266,22.768,7.561,22.865L7.561,22.865z M11.487,21v4.916c0,2.169-0.113,2.994-0.473,3.706c-0.343,0.696-0.881,1.153-1.992,1.669l2.336,1.101 c1.111-0.552,1.649-1.052,2.057-1.845C13.852,29.722,14,28.765,14,26.776V21H11.487z M11.5,19.558h2.517V17H11.5V19.558z M15.496,23.596c0.933-0.486,1.928-0.739,2.812-0.739c0.604,0,0.822,0.159,0.822,0.598v0.533c-2.935,0.25-4.13,1.035-4.13,2.734 C15,28.293,15.899,29,17.904,29c0.992,0,2.344-0.112,3.416-0.268v-4.918c0-1.007-0.065-1.477-0.265-1.839 C20.698,21.33,19.891,21,18.662,21c-1.103,0-2.113,0.221-3.169,0.723L15.496,23.596z M19.237,25.572v1.621 c-0.465,0.078-0.791,0.109-1.148,0.109c-0.653,0-0.949-0.221-0.949-0.692C17.14,25.98,17.655,25.728,19.237,25.572L19.237,25.572z M22.7,29H25v-5.843c0.477-0.146,0.843-0.177,1.168-0.177c0.847,0,1.243,0.352,1.243,1.295V29h2.29v-4.823 c0-1.229-0.157-1.805-0.649-2.331C28.529,21.288,27.648,21,26.431,21c-1.171,0-2.327,0.174-3.731,0.557V29z M31.195,30.268v2.256 C32.077,32.858,32.927,33,33.909,33c1.931,0,3.29-0.589,4.075-1.778c0.538-0.812,0.72-1.794,0.72-3.889v-0.667 c-0.017-0.334-0.017-0.667-0.033-1.001l-0.016-1.334L38.623,23.3v-0.255c0.506,0.047-0.11-0.06,0.561,0.066l0.863-1.762 C38.837,21.11,37.838,21,36.758,21C33.079,21,31,22.57,31,25.348c0,2.237,1.405,3.65,3.613,3.65c0.652,0,1.145-0.098,1.635-0.334 v0.047c0,1.554-0.704,2.206-2.355,2.206C32.959,30.917,32.077,30.712,31.195,30.268L31.195,30.268z M36.2,23.158l0.017,0.809 l0.016,1.126c0,0.334,0.017,0.651,0.017,0.938v0.667v0.177c-0.324,0.095-0.604,0.157-0.947,0.157c-1.113,0-1.735-0.699-1.735-1.919 c0-0.856,0.311-1.46,0.914-1.793c0.393-0.239,0.967-0.365,1.457-0.349h0.182H36.2V23.158z M40,25.077 C40,27.497,41.511,29,43.961,29C46.443,29,48,27.435,48,24.939C48,22.504,46.505,21,44.059,21C41.561,21,40.004,22.565,40,25.077z M44.008,27.075c-0.952,0-1.511-0.759-1.511-2.078c0-1.319,0.556-2.078,1.527-2.078c0.939,0,1.478,0.775,1.478,2.078 C45.503,26.316,44.948,27.075,44.008,27.075L44.008,27.075z"></path>
</svg>